Coordinates
version=1
nRows=24
nColumns=24
inDegrees=yes

Units are S.I. units (second, meters, Newtons, ...)
Angles are in degrees.

endheader
time	pelvis_tilt	pelvis_list	pelvis_rotation	pelvis_tx	pelvis_ty	pelvis_tz	hip_flexion_r	hip_adduction_r	hip_rotation_r	knee_angle_r	ankle_angle_r	subtalar_angle_r	mtp_angle_r	hip_flexion_l	hip_adduction_l	hip_rotation_l	knee_angle_l	ankle_angle_l	subtalar_angle_l	mtp_angle_l	lumbar_extension	lumbar_bending	lumbar_rotation
      4.53500000	    -14.10982383	     11.04691227	     -6.85955356	      2.91504787	     -0.01807344	     -0.40607849	     20.80129576	    -16.71224970	     -5.58966428	    -58.00489378	    -26.89990763	     13.20973998	     42.68713314	     26.00760655	     10.94509148	    -14.63354068	    -10.73569266	     -9.69368891	      3.72623221	      8.51433780	     15.21070714	    -14.41612641	      8.12943186
      4.54000000	    -13.97461883	     10.98792450	     -6.73413626	      2.92132317	     -0.01719214	     -0.40677057	     21.39942481	    -16.79087622	     -5.66097535	    -58.90102359	    -26.09771679	     13.24414262	     42.90930964	     25.27654196	     11.11172067	    -14.51612544	    -10.38791603	     -9.43801006	      3.99234211	      8.70905834	     15.05974212	    -14.38368139	      7.75288565
      4.54500000	    -13.76838468	     10.83389004	     -6.64091133	      2.92752590	     -0.01611730	     -0.40738848	     21.88000040	    -16.73744160	     -5.69394022	    -59.65903389	    -25.40524608	     13.43326029	     43.26459158	     24.45165249	     11.17001625	    -14.38384109	    -10.02685454	     -9.21117796	      4.33025590	      8.97219851	     14.81425020	    -14.26048171	      7.33889275
      4.55000000	    -13.64383461	     10.68906388	     -6.50285708	      2.93368412	     -0.01518738	     -0.40809215	     22.44739432	    -16.70737172	     -5.78147465	    -60.38388767	    -24.76565953	     13.66077711	     43.64973564	     23.73269783	     11.24163946	    -14.15568009	     -9.70425953	     -8.98586027	      4.55807919	      9.12471458	     14.64752806	    -14.13863922	      6.93883626
      4.55500000	    -13.42586561	     10.46069543	     -6.37118202	      2.93985904	     -0.01408639	     -0.40881936	     22.84908634	    -16.59180517	     -5.90858181	    -60.95168516	    -24.24436230	     13.85061901	     44.49357222	     22.88902333	     11.24819579	    -13.83786595	     -9.36654149	     -8.75600662	      4.69678388	      9.22270803	     14.37025109	    -13.93564780	      6.51197277
      4.56000000	    -13.31593546	     10.24857872	     -6.19380395	      2.94599589	     -0.01315042	     -0.40961474	     23.36418713	    -16.49097179	     -6.04804374	    -61.48372422	    -23.73166796	     14.14824553	     45.31908165	     22.18131686	     11.26579804	    -13.46320430	     -9.06640216	     -8.52656801	      4.77163582	      9.19771592	     14.20806822	    -13.74360341	      6.05460738
      4.56500000	    -13.19313044	     10.02714979	     -6.00629961	      2.95213124	     -0.01221635	     -0.41041197	     23.84434175	    -16.37924544	     -6.20126597	    -61.95254484	    -23.21353212	     14.48997336	     46.07714545	     21.45821010	     11.27609737	    -13.05563764	     -8.76930382	     -8.29927516	      4.80764063	      9.11593236	     14.03415426	    -13.54450484	      5.58859646
      4.57000000	    -13.13743956	      9.79777185	     -5.82693169	      2.95822831	     -0.01138712	     -0.41116153	     24.40035525	    -16.22413556	     -6.30393254	    -62.38978116	    -22.65916823	     14.98422120	     46.51951691	     20.82344424	     11.24783027	    -12.70086642	     -8.49457022	     -8.07137079	      4.89782766	      9.12307509	     13.93960591	    -13.32624179	      5.15163338
      4.57500000	    -12.96462961	      9.54162051	     -5.59704050	      2.96432234	     -0.01043787	     -0.41203948	     24.76662185	    -16.09163830	     -6.52870716	    -62.70888385	    -22.14181375	     15.23603330	     47.44510906	     20.04141893	     11.24793288	    -12.08733151	     -8.20966075	     -7.85012866	      4.69138172	      8.81538447	     13.69656816	    -13.10251605	      4.64610109
      4.58000000	    -12.87664205	      9.28779350	     -5.38122525	      2.97039276	     -0.00961729	     -0.41285391	     25.23113748	    -15.92155867	     -6.69440802	    -62.99074130	    -21.58993727	     15.56251377	     48.20516812	     19.37031819	     11.21051260	    -11.59410287	     -7.94974690	     -7.60933968	      4.62216217	      8.60496688	     13.56023572	    -12.86710500	      4.17557665
      4.58500000	    -12.78035744	      9.02103114	     -5.17074681	      2.97645423	     -0.00881025	     -0.41364992	     25.67113928	    -15.72625213	     -6.86108184	    -63.21893548	    -21.01052441	     15.84022375	     48.80301430	     18.68925873	     11.15165048	    -11.10189602	     -7.68607213	     -7.38226602	      4.52464141	      8.40869499	     13.41923933	    -12.61584995	      3.71472835
      4.59000000	    -12.68768051	      8.75143433	     -4.95442415	      2.98248233	     -0.00804677	     -0.41444767	     26.10423238	    -15.52298984	     -7.03511803	    -63.40100817	    -20.40925430	     16.05203004	     49.27498678	     18.01924716	     11.08159733	    -10.63050373	     -7.42837606	     -7.15798733	      4.44078040	      8.23547084	     13.28267874	    -12.36245416	      3.25088298
      4.59500000	    -12.59882387	      8.47840197	     -4.73423776	      2.98848019	     -0.00732123	     -0.41523865	     26.53001554	    -15.31043368	     -7.21662605	    -63.53603816	    -19.78768770	     16.17892129	     49.61938666	     17.36087698	     10.99878545	    -10.20410899	     -7.17622285	     -6.94178660	      4.38126511	      8.09754710	     13.14888439	    -12.10486407	      2.78002285
      4.60000000	    -12.54075028	      8.19434627	     -4.52659127	      2.99445896	     -0.00665655	     -0.41598806	     26.98553740	    -15.06451553	     -7.37789621	    -63.62369761	    -19.18539095	     16.24027431	     49.80884633	     16.73644823	     10.88115632	     -9.80831687	     -6.91790178	     -6.71931707	      4.39961557	      8.05033179	     13.05827362	    -11.82912767	      2.35722243
      4.60500000	    -12.44714388	      7.92461367	     -4.29684492	      3.00041141	     -0.00600808	     -0.41676843	     27.38876287	    -14.85504369	     -7.59055640	    -63.67261752	    -18.57068951	     16.11132599	     49.91894698	     16.07702836	     10.78404884	     -9.41103668	     -6.65949046	     -6.50991211	      4.40832838	      7.98741082	     12.92358731	    -11.57743882	      1.90809699
      4.61000000	    -12.35604316	      7.66132438	     -4.08276931	      3.00632871	     -0.00540352	     -0.41753236	     27.79645125	    -14.64060996	     -7.78514610	    -63.67815162	    -17.97036821	     15.88638348	     49.93484250	     15.42561856	     10.68006588	     -9.05912562	     -6.39770255	     -6.30468332	      4.44112820	      7.94796362	     12.79729462	    -11.32516070	      1.48694787
      4.61500000	    -12.26838918	      7.40316225	     -3.86501217	      3.01221634	     -0.00484259	     -0.41829566	     28.20175122	    -14.43168043	     -7.98748789	    -63.64181254	    -17.38403197	     15.55357800	     49.84487619	     14.78436677	     10.57276943	     -8.73668724	     -6.13811518	     -6.10417042	      4.50862744	      7.94149927	     12.67555938	    -11.07778406	      1.07176063
      4.62000000	    -12.17470025	      7.14306998	     -3.64147201	      3.01807626	     -0.00431050	     -0.41906728	     28.58931502	    -14.22355107	     -8.20327408	    -63.55943138	    -16.81517448	     15.12093098	     49.63454532	     14.14293986	     10.45757813	     -8.43086625	     -5.88329166	     -5.90626364	      4.59721560	      7.95830228	     12.54668474	    -10.82816491	      0.65350983
      4.62500000	    -12.00185114	      6.87358097	     -3.40238773	      3.02394482	     -0.00372733	     -0.41987530	     28.85969793	    -14.02583590	     -8.44329010	    -63.42910073	    -16.21228767	     14.76198495	     49.03815983	     13.40955578	     10.33831008	     -8.10203832	     -5.62042476	     -5.70367022	      4.69733881	      7.97512249	     12.32864577	    -10.57584607	      0.22018452
      4.63000000	    -11.91831140	      6.61573590	     -3.16293942	      3.02976230	     -0.00328778	     -0.42064330	     29.23892264	    -13.82240589	     -8.67843812	    -63.27631524	    -15.65036887	     14.21354820	     48.35959215	     12.79581702	     10.21005334	     -7.81191079	     -5.38458473	     -5.50602612	      4.81970156	      8.03150759	     12.21312612	    -10.33059271	     -0.19003487
      4.63500000	    -11.84492420	      6.36228497	     -2.94177016	      3.03548068	     -0.00290392	     -0.42140703	     29.63536439	    -13.60895107	     -8.89346443	    -63.07199395	    -15.12581164	     13.52691691	     47.78309615	     12.22030162	     10.07832383	     -7.56734911	     -5.18068287	     -5.30660064	      4.89221722	      8.06929287	     12.10135479	    -10.07966437	     -0.60833211
      4.64000000	    -11.71930099	      6.10937961	     -2.68800909	      3.04129487	     -0.00249202	     -0.42218771	     29.93408706	    -13.42279940	     -9.15078730	    -62.82330253	    -14.56666121	     12.93228616	     46.78552059	     11.56287875	      9.94753552	     -7.21411376	     -4.94955755	     -5.10007126	      5.00108120	      8.07471320	     11.94574871	     -9.84151945	     -0.97998188
      4.64500000	    -11.64710256	      5.86600225	     -2.44792472	      3.04699635	     -0.00219232	     -0.42294379	     30.30339168	    -13.22625845	     -9.38261985	    -62.53419473	    -14.04195579	     12.21655016	     45.87911612	     11.00032668	      9.81516057	     -6.90946037	     -4.76754684	     -4.88075196	      5.05720293	      8.04700148	     11.84105106	     -9.60525489	     -1.37067897
      4.65000000	    -11.54493029	      5.66889614	     -2.23302987	      3.05264737	     -0.00193726	     -0.42365931	     30.65460624	    -13.06470982	     -9.57464248	    -62.22866823	    -13.49700224	     11.48866035	     44.74482709	     10.41545247	      9.72504293	     -6.62019210	     -4.59295973	     -4.66469543	      5.07527112	      7.94129819	     11.70683806	     -9.41110856	     -1.71959127
